<svg xmlns="http://www.w3.org/2000/svg" width="24" height="26" viewBox="0 0 24 26">
  <defs>
    <style>
      .cls-1 {
        fill: #fff;
        fill-rule: evenodd;
      }
    </style>
  </defs>
  <path id="Composite_Path" data-name="Composite Path" class="cls-1" d="M1128.26,42.592c4.4,0,8.68,2.879,8.68,8.625s-4.28,8.625-8.68,8.625-8.68-2.879-8.68-8.625S1123.86,42.592,1128.26,42.592Zm0-1.592c-5.07,0-10.26,3.4-10.26,10.217s5.19,10.216,10.26,10.216a10.983,10.983,0,0,0,5.49-1.443l6.67,7.01,1.58-1.591-6.44-6.768a9.928,9.928,0,0,0,2.96-7.424C1138.52,44.4,1133.33,41,1128.26,41Z" transform="translate(-1118 -41)"/>
</svg>
